<svg width="508.37498779296874px" height="124.53333740234375px" xmlns="http://www.w3.org/2000/svg" viewBox="-4.187493896484369 12.733331298828126 508.37498779296874 124.53333740234375" style="background: rgba(0, 0, 0, 0);" preserveAspectRatio="xMidYMid"><defs><linearGradient id="editing-outline-gradient" x1="-0.43358042649720174" x2="1.4335804264972016" y1="0.14163205045469973" y2="0.8583679495453003"><stop offset="0" stop-color="#ee4208"></stop><stop offset="1" stop-color="#5352ec"></stop></linearGradient><filter id="editing-outline" x="-100%" y="-100%" width="300%" height="300%"><feMorphology in="SourceGraphic" operator="dilate" radius="2" result="outline"></feMorphology><feComposite operator="out" in="outline" in2="SourceAlpha"></feComposite></filter></defs><g filter="url(#editing-outline)"><g transform="translate(70.14000701904297, 98.04500007629395)"><path d="M12.16-34.75L12.16 0L5.75 0L5.75-44.81L12.16-44.81L39.09-10.06L39.09-44.81L45.50-44.81L45.50 0L39.09 0L12.16-34.75ZM84.53-27.13L84.53-13.50L62.50-13.50L62.50-6.16L84.53-6.16L84.53 0L62.50 0L62.50 0Q61.25 0 60.13-0.48L60.13-0.48L60.13-0.48Q59-0.97 58.17-1.80L58.17-1.80L58.17-1.80Q57.34-2.63 56.86-3.75L56.86-3.75L56.86-3.75Q56.38-4.88 56.38-6.16L56.38-6.16L56.38-27.13L56.38-27.13Q56.38-28.41 56.86-29.53L56.86-29.53L56.86-29.53Q57.34-30.66 58.17-31.48L58.17-31.48L58.17-31.48Q59-32.31 60.13-32.80L60.13-32.80L60.13-32.80Q61.25-33.28 62.50-33.28L62.50-33.28L78.38-33.28L78.38-33.28Q79.66-33.28 80.78-32.80L80.78-32.80L80.78-32.80Q81.91-32.31 82.73-31.48L82.73-31.48L82.73-31.48Q83.56-30.66 84.05-29.53L84.05-29.53L84.05-29.53Q84.53-28.41 84.53-27.13L84.53-27.13ZM78.38-27.13L62.50-27.13L62.50-19.66L78.38-19.66L78.38-27.13ZM94.78-6.16L94.78-33.28L100.91-33.28L100.91-6.16L118.06-6.16L118.06-33.28L124.22-33.28L124.22 0L118.06 0L118.06-5.63L118.06-5.63Q117.97-4.47 117.44-3.44L117.44-3.44L117.44-3.44Q116.91-2.41 116.08-1.64L116.08-1.64L116.08-1.64Q115.25-0.88 114.19-0.44L114.19-0.44L114.19-0.44Q113.13 0 111.94 0L111.94 0L100.91 0L100.91 0Q99.66 0 98.53-0.48L98.53-0.48L98.53-0.48Q97.41-0.97 96.58-1.80L96.58-1.80L96.58-1.80Q95.75-2.63 95.27-3.75L95.27-3.75L95.27-3.75Q94.78-4.88 94.78-6.16L94.78-6.16ZM153.28-27.13L140.59-27.13L140.59 0L134.47 0L134.47-33.28L140.59-33.28L140.59-27.41L140.59-27.41Q140.66-28.63 141.16-29.70L141.16-29.70L141.16-29.70Q141.66-30.78 142.48-31.58L142.48-31.58L142.48-31.58Q143.31-32.38 144.41-32.83L144.41-32.83L144.41-32.83Q145.50-33.28 146.75-33.28L146.75-33.28L153.28-33.28L153.28-33.28Q154.56-33.28 155.67-32.80L155.67-32.80L155.67-32.80Q156.78-32.31 157.63-31.48L157.63-31.48L157.63-31.48Q158.47-30.66 158.95-29.53L158.95-29.53L158.95-29.53Q159.44-28.41 159.44-27.13L159.44-27.13L159.44-21.50L153.28-21.50L153.28-27.13ZM195.88-27.13L195.88-6.16L195.88-6.16Q195.88-4.88 195.39-3.75L195.39-3.75L195.39-3.75Q194.91-2.63 194.08-1.80L194.08-1.80L194.08-1.80Q193.25-0.97 192.14-0.48L192.14-0.48L192.14-0.48Q191.03 0 189.75 0L189.75 0L173.22 0L173.22 0Q171.97 0 170.84-0.48L170.84-0.48L170.84-0.48Q169.72-0.97 168.89-1.80L168.89-1.80L168.89-1.80Q168.06-2.63 167.58-3.75L167.58-3.75L167.58-3.75Q167.09-4.88 167.09-6.16L167.09-6.16L167.09-27.13L167.09-27.13Q167.09-28.41 167.58-29.53L167.58-29.53L167.58-29.53Q168.06-30.66 168.89-31.48L168.89-31.48L168.89-31.48Q169.72-32.31 170.84-32.80L170.84-32.80L170.84-32.80Q171.97-33.28 173.22-33.28L173.22-33.28L189.75-33.28L189.75-33.28Q191.03-33.28 192.14-32.80L192.14-32.80L192.14-32.80Q193.25-32.31 194.08-31.48L194.08-31.48L194.08-31.48Q194.91-30.66 195.39-29.53L195.39-29.53L195.39-29.53Q195.88-28.41 195.88-27.13L195.88-27.13ZM189.75-27.13L173.22-27.13L173.22-6.16L189.75-6.16L189.75-27.13ZM206.75-6.41L206.75-38.41L206.75-38.41Q206.75-39.72 207.25-40.89L207.25-40.89L207.25-40.89Q207.75-42.06 208.63-42.92L208.63-42.92L208.63-42.92Q209.50-43.78 210.67-44.30L210.67-44.30L210.67-44.30Q211.84-44.81 213.16-44.81L213.16-44.81L237.47-44.81L237.47-44.81Q238.78-44.81 239.95-44.30L239.95-44.30L239.95-44.30Q241.13-43.78 242-42.92L242-42.92L242-42.92Q242.88-42.06 243.38-40.89L243.38-40.89L243.38-40.89Q243.88-39.72 243.88-38.41L243.88-38.41L243.88-32.63L237.47-32.63L237.47-38.41L213.16-38.41L213.16-6.41L237.47-6.41L237.47-12.16L243.88-12.16L243.88-6.41L243.88-6.41Q243.88-5.09 243.38-3.92L243.38-3.92L243.38-3.92Q242.88-2.75 242-1.88L242-1.88L242-1.88Q241.13-1 239.95-0.50L239.95-0.50L239.95-0.50Q238.78 0 237.47 0L237.47 0L213.16 0L213.16 0Q211.84 0 210.67-0.50L210.67-0.50L210.67-0.50Q209.50-1 208.63-1.88L208.63-1.88L208.63-1.88Q207.75-2.75 207.25-3.92L207.25-3.92L207.25-3.92Q206.75-5.09 206.75-6.41L206.75-6.41ZM253.50-6.16L253.50-14.53L253.50-14.53Q253.50-15.81 253.98-16.92L253.98-16.92L253.98-16.92Q254.47-18.03 255.30-18.88L255.30-18.88L255.30-18.88Q256.13-19.72 257.25-20.20L257.25-20.20L257.25-20.20Q258.38-20.69 259.63-20.69L259.63-20.69L275.50-20.69L275.50-27.13L255.41-27.13L255.41-33.28L275.50-33.28L275.50-33.28Q276.78-33.28 277.91-32.80L277.91-32.80L277.91-32.80Q279.03-32.31 279.86-31.48L279.86-31.48L279.86-31.48Q280.69-30.66 281.17-29.53L281.17-29.53L281.17-29.53Q281.66-28.41 281.66-27.13L281.66-27.13L281.66 0L275.50 0L275.50-5.63L275.50-5.63Q275.41-4.47 274.88-3.44L274.88-3.44L274.88-3.44Q274.34-2.41 273.52-1.64L273.52-1.64L273.52-1.64Q272.69-0.88 271.63-0.44L271.63-0.44L271.63-0.44Q270.56 0 269.38 0L269.38 0L259.63 0L259.63 0Q258.38 0 257.25-0.48L257.25-0.48L257.25-0.48Q256.13-0.97 255.30-1.80L255.30-1.80L255.30-1.80Q254.47-2.63 253.98-3.75L253.98-3.75L253.98-3.75Q253.50-4.88 253.50-6.16L253.50-6.16ZM259.63-14.53L259.63-6.16L275.50-6.16L275.50-14.53L259.63-14.53ZM310.72-27.13L298.03-27.13L298.03 0L291.91 0L291.91-33.28L298.03-33.28L298.03-27.41L298.03-27.41Q298.09-28.63 298.59-29.70L298.59-29.70L298.59-29.70Q299.09-30.78 299.92-31.58L299.92-31.58L299.92-31.58Q300.75-32.38 301.84-32.83L301.84-32.83L301.84-32.83Q302.94-33.28 304.19-33.28L304.19-33.28L310.72-33.28L310.72-33.28Q312-33.28 313.11-32.80L313.11-32.80L313.11-32.80Q314.22-32.31 315.06-31.48L315.06-31.48L315.06-31.48Q315.91-30.66 316.39-29.53L316.39-29.53L316.39-29.53Q316.88-28.41 316.88-27.13L316.88-27.13L316.88-21.50L310.72-21.50L310.72-27.13ZM324.53-6.16L324.53-27.13L324.53-27.13Q324.53-28.41 325.02-29.53L325.02-29.53L325.02-29.53Q325.50-30.66 326.33-31.48L326.33-31.48L326.33-31.48Q327.16-32.31 328.28-32.80L328.28-32.80L328.28-32.80Q329.41-33.28 330.66-33.28L330.66-33.28L347.81-33.28L347.81-46.09L353.97-46.09L353.97 0L347.81 0L347.81-5.63L347.81-5.63Q347.72-4.47 347.19-3.44L347.19-3.44L347.19-3.44Q346.66-2.41 345.83-1.64L345.83-1.64L345.83-1.64Q345-0.88 343.94-0.44L343.94-0.44L343.94-0.44Q342.88 0 341.69 0L341.69 0L330.66 0L330.66 0Q329.41 0 328.28-0.48L328.28-0.48L328.28-0.48Q327.16-0.97 326.33-1.80L326.33-1.80L326.33-1.80Q325.50-2.63 325.02-3.75L325.02-3.75L325.02-3.75Q324.53-4.88 324.53-6.16L324.53-6.16ZM330.66-27.13L330.66-6.16L347.81-6.16L347.81-27.13L330.66-27.13Z" fill="url(#editing-outline-gradient)"></path></g></g><style>text {
  font-size: 64px;
  font-family: Arial Black;
  dominant-baseline: central;
  text-anchor: middle;
}</style></svg>